<svg xmlns="http://www.w3.org/2000/svg" pointer-events="none" class="leaflet-zoom-animated" width="1451" height="830" viewBox="-1231 450 1451 830" style="transform: translate3d(-1231px, 450px, 0px);"><g><path class="leaflet-interactive" stroke="black" stroke-opacity="1" stroke-width="2" stroke-linecap="round" stroke-linejoin="round" fill="#fff" fill-opacity="0.2" fill-rule="evenodd" d="M-475 846L-475 849L-479 852L-480 850L-482 853L-483 849L-487 853L-489 853L-491 863L-493 864L-496 864L-503 860L-519 869L-532 870L-540 874L-546 875L-548 893L-553 908L-567 920L-577 922L-585 926L-592 935L-592 937L-589 939L-583 939L-576 943L-576 948L-579 950L-588 950L-590 953L-590 960L-592 963L-599 958L-605 957L-615 971L-614 976L-603 976L-603 978L-605 980L-612 980L-616 983L-610 984L-608 988L-609 991L-617 993L-619 995L-617 1006L-615 1007L-609 1004L-599 1005L-590 1009L-589 1015L-577 1016L-575 1018L-574 1023L-576 1027L-575 1029L-573 1030L-569 1027L-564 1027L-562 1029L-563 1038L-560 1041L-558 1041L-556 1031L-551 1029L-547 1029L-534 1034L-532 1019L-538 1002L-538 996L-536 991L-527 981L-505 968L-498 960L-489 962L-487 965L-486 971L-491 986L-491 992L-488 996L-477 1004L-435 1021L-426 1018L-402 999L-393 997L-369 1004L-362 1004L-324 989L-311 980L-313 980L-315 977L-320 963L-316 938L-295 911L-293 902L-297 895L-323 880L-349 872L-359 867L-368 860L-369 856L-367 853L-357 848L-357 846L-360 840L-369 833L-372 826L-367 813L-375 801L-373 790L-380 789L-387 798L-395 803L-404 803L-409 798L-411 792L-417 789L-456 806L-462 810L-467 817L-471 842L-473 846z" id="叠彩区"/></g></svg>