<svg xmlns="http://www.w3.org/2000/svg" pointer-events="none" class="leaflet-zoom-animated" width="1451" height="830" viewBox="-923 151 1451 830" style="transform: translate3d(-923px, 151px, 0px);"><g><path class="leaflet-interactive" stroke="black" stroke-opacity="1" stroke-width="2" stroke-linecap="round" stroke-linejoin="round" fill="#eee" fill-opacity="0.5" fill-rule="evenodd" d="M-76 880L-76 876L-74 873L-65 872L-61 869L-59 857L-51 838L-43 836L-36 839L-29 839L-21 836L-17 824L-10 813L-7 815L2 815L8 812L9 808L5 801L6 795L10 791L18 793L22 793L25 791L28 788L39 762L52 759L56 755L56 739L49 719L49 706L53 695L56 677L52 657L44 655L36 661L28 664L25 664L17 660L9 650L2 627L3 623L-6 623L-35 634L-46 630L-51 631L-55 632L-61 639L-66 639L-70 634L-82 645L-84 643L-82 639L-79 636L-75 637L-72 632L-73 630L-77 629L-78 625L-74 609L-79 603L-90 600L-91 596L-86 591L-86 587L-87 584L-97 575L-101 562L-99 556L-103 543L-102 533L-93 517L-93 515L-96 515L-96 513L-80 494L-81 491L-84 490L-85 486L-80 479L-81 475L-72 458L-67 454L-69 447L-66 443L-43 432L-34 432L-31 426L-19 425L-11 413L-7 413L-1 408L7 406L14 401L14 394L18 386L18 383L12 373L13 368L7 350L7 346L1 347L-7 360L-19 360L-23 361L-30 366L-49 369L-52 371L-56 380L-58 381L-68 381L-82 387L-94 385L-100 387L-109 396L-115 398L-122 399L-125 397L-121 383L-146 387L-158 391L-167 397L-175 406L-181 427L-192 435L-200 436L-205 433L-216 434L-218 433L-219 426L-223 420L-233 422L-243 417L-253 409L-266 407L-263 411L-265 415L-264 435L-261 440L-240 454L-233 467L-226 472L-225 481L-230 484L-238 482L-256 486L-264 481L-270 474L-280 474L-285 476L-296 477L-318 475L-325 477L-327 483L-323 503L-326 509L-328 510L-341 507L-349 511L-347 521L-348 527L-352 530L-348 529L-344 535L-344 540L-335 553L-334 556L-338 563L-334 572L-329 577L-328 580L-329 585L-323 601L-321 618L-310 633L-309 640L-299 652L-302 668L-298 667L-287 670L-283 673L-272 688L-253 694L-235 712L-234 717L-236 726L-233 734L-231 738L-223 742L-209 768L-202 766L-199 758L-193 764L-183 764L-185 777L-182 781L-179 782L-174 789L-174 792L-176 794L-170 802L-164 819L-160 823L-156 833L-156 840L-153 845L-131 860L-122 868L-109 865L-106 875L-96 885L-91 885L-78 879z" id="恭城瑶族自治县"/></g></svg>