<svg xmlns="http://www.w3.org/2000/svg" pointer-events="none" class="leaflet-zoom-animated" width="1452" height="830" viewBox="-121 -69 1452 830" style="transform: translate3d(-121px, -69px, 0px);"><g><path class="leaflet-interactive" stroke="black" stroke-opacity="1" stroke-width="2" stroke-linecap="round" stroke-linejoin="round" fill="#fff" fill-opacity="0.2" fill-rule="evenodd" d="M792 175L786 175L784 173L786 167L789 164L787 161L786 163L782 161L781 158L776 161L773 161L772 163L769 163L768 160L766 160L764 164L759 167L761 167L762 170L758 174L758 176L753 180L753 190L749 192L744 189L741 189L741 184L738 182L740 186L737 187L736 189L734 187L736 185L733 182L730 184L721 185L721 189L717 189L713 192L713 195L718 195L721 191L723 191L723 189L725 191L726 189L730 191L725 200L727 201L727 206L730 208L729 210L726 210L725 212L718 208L713 209L710 207L705 211L703 208L704 204L702 203L703 200L694 201L694 205L693 204L691 206L691 208L694 210L689 211L687 214L689 216L688 217L687 215L685 221L688 224L688 233L685 230L685 227L676 218L674 217L671 219L667 213L660 210L659 213L653 217L654 219L652 221L652 218L649 217L646 219L646 221L647 220L649 222L648 224L645 224L646 226L644 229L644 240L642 240L642 242L639 244L632 244L620 249L617 252L610 252L612 248L612 246L609 244L610 241L609 239L604 244L604 241L601 239L600 232L598 232L596 238L594 237L594 239L591 239L587 243L584 242L584 233L581 235L578 229L579 225L576 222L573 224L569 223L568 220L571 219L570 214L561 207L562 205L560 202L553 207L546 207L547 211L541 215L540 219L537 220L539 227L542 229L542 236L539 238L540 239L532 239L530 245L519 245L516 247L510 246L507 248L507 251L496 258L490 260L489 262L477 266L469 265L466 268L463 268L468 278L465 288L463 287L462 290L455 294L451 300L448 299L444 291L437 291L432 294L423 287L415 286L414 283L406 284L403 282L399 272L394 269L384 271L381 267L376 264L373 268L370 267L370 269L362 276L360 285L357 287L349 288L344 296L337 298L334 302L328 298L325 298L318 291L314 293L313 297L310 300L308 299L311 299L313 301L313 305L320 321L325 324L323 326L332 332L333 328L331 323L333 319L335 320L336 318L347 320L352 323L360 320L368 322L369 327L371 326L376 330L373 335L378 342L380 342L380 346L377 348L375 347L375 349L382 358L385 356L383 354L387 352L396 360L402 362L405 360L404 359L405 354L407 352L406 351L414 350L416 351L417 359L420 360L422 357L426 358L428 356L432 358L430 360L431 361L435 361L437 358L440 360L440 354L442 351L446 353L449 351L450 354L452 353L454 355L454 359L458 362L463 373L467 376L465 377L467 380L462 384L464 391L460 403L462 406L460 407L456 414L451 416L449 419L448 414L444 412L441 413L439 410L432 413L432 416L427 417L426 420L422 423L417 423L422 427L420 428L422 430L419 431L420 429L417 429L414 432L412 432L407 438L406 440L408 445L410 446L409 454L410 456L415 457L417 455L425 458L426 460L434 464L438 471L440 471L439 470L443 468L449 469L451 464L457 463L459 465L468 465L474 472L473 474L475 476L482 477L483 475L495 472L497 468L502 471L504 470L509 476L512 474L515 475L514 476L518 480L520 480L519 482L524 481L526 483L519 489L519 491L521 492L515 499L516 501L514 505L510 505L505 502L503 514L502 516L501 515L501 520L503 523L503 525L501 526L502 528L509 528L511 534L513 534L512 536L514 540L513 542L511 542L515 554L511 562L513 565L518 560L521 561L523 564L533 564L534 567L537 569L542 567L546 570L546 572L541 576L541 578L557 586L560 590L563 591L565 588L568 587L574 596L574 601L576 601L583 595L585 596L585 601L589 602L594 599L595 601L606 599L614 595L617 597L621 597L621 600L625 602L627 607L636 606L641 610L648 609L649 608L646 605L652 600L654 601L653 607L650 611L652 611L662 606L675 606L680 601L683 595L687 593L693 597L693 595L695 596L695 600L693 601L696 600L696 596L699 600L702 600L704 598L706 598L707 600L712 598L717 602L728 602L732 604L734 603L736 608L734 610L729 611L726 614L726 617L737 622L745 618L751 617L767 615L771 617L778 606L780 606L783 612L790 615L794 615L790 598L793 594L795 598L796 596L799 597L806 594L805 591L808 587L808 578L812 574L814 573L821 575L826 571L826 573L830 571L837 573L840 569L843 572L849 572L849 568L847 568L849 566L846 564L845 558L845 552L847 552L847 549L843 546L845 543L848 545L852 541L858 546L857 547L861 547L864 542L871 547L873 546L875 544L872 539L876 537L879 533L885 534L881 526L878 525L878 518L876 516L876 514L878 516L882 515L881 513L883 504L886 505L886 507L889 504L895 503L895 501L901 501L902 498L910 498L910 496L913 494L910 491L910 489L923 489L926 487L926 484L931 482L934 476L937 474L939 470L938 466L941 465L940 462L944 459L944 456L939 455L939 449L941 447L939 444L940 442L938 437L936 437L939 433L937 430L940 424L939 423L941 416L944 417L947 412L949 407L949 401L955 399L960 400L961 396L965 393L961 391L964 380L967 382L970 380L972 382L977 383L980 380L978 375L979 373L983 372L982 370L987 369L990 365L984 353L984 341L990 341L991 338L994 338L999 332L1001 325L999 324L998 320L995 319L994 315L996 313L996 310L990 304L989 301L991 299L990 295L992 292L998 290L995 288L984 288L984 286L979 287L976 285L969 285L963 291L962 296L959 294L955 300L953 300L949 296L944 296L948 284L945 278L945 274L947 271L944 268L947 261L944 261L942 259L944 254L941 251L939 251L938 253L934 253L929 248L920 258L914 260L913 270L907 270L903 272L904 268L900 262L900 259L905 247L915 242L914 235L919 231L921 227L927 225L932 218L936 203L933 200L932 191L941 189L942 186L945 185L943 180L944 178L949 177L947 175L946 176L946 174L939 175L939 172L937 174L936 172L931 177L928 177L922 167L925 159L929 157L927 155L929 153L929 141L931 140L930 135L926 136L923 134L924 132L914 132L912 130L908 130L907 128L905 128L903 124L899 125L899 134L897 137L898 136L895 135L883 138L880 135L882 133L881 131L879 133L877 131L870 131L870 129L867 133L864 134L861 144L859 146L857 144L848 153L844 164L837 167L836 160L832 156L829 158L828 161L824 159L823 161L819 158L823 149L821 145L816 146L815 144L812 145L810 143L805 148L802 159L795 159L794 163L798 171L797 174L793 176zM367 271L366 272zM730 658L732 659L732 657L734 658L736 655L734 652L730 655zM741 668L743 668L741 667zM708 600L708 602L710 602z" id="广西壮族自治区"/><path class="leaflet-interactive" stroke="#333" stroke-opacity="1" stroke-width="1" stroke-linecap="round" stroke-linejoin="round" stroke-dasharray="1,6" fill="#eee" fill-opacity="0.5" fill-rule="evenodd" d="M742 434L741 433L740 437L735 433L734 435L732 434L730 432L730 429L728 431L724 427L716 427L714 420L710 416L707 416L708 415L706 414L707 411L705 409L703 402L704 400L702 399L702 395L705 392L702 390L702 386L698 384L689 387L685 389L686 390L684 390L680 396L677 397L677 392L675 391L676 387L671 385L672 383L671 384L669 382L673 379L673 375L675 374L672 374L673 372L670 372L672 368L671 367L673 365L676 365L675 362L673 363L673 361L671 360L665 363L665 372L661 372L658 378L660 380L657 382L657 384L655 382L654 383L650 376L646 381L644 378L640 384L637 383L633 386L635 393L633 394L633 396L631 396L630 401L628 401L628 399L626 398L620 403L615 403L613 407L610 406L606 408L608 411L607 418L616 421L620 419L619 424L616 426L616 430L612 428L608 430L609 432L600 436L594 434L594 440L592 441L592 443L589 443L588 441L585 440L583 441L584 439L579 437L575 439L572 444L573 447L570 449L576 453L571 457L574 460L575 458L581 458L584 461L586 465L586 469L584 470L585 476L587 478L593 477L592 474L596 472L599 473L602 477L604 475L598 469L608 468L613 475L619 475L621 478L629 479L629 483L634 484L634 488L631 493L635 497L638 495L639 492L641 497L639 500L632 502L631 504L633 508L630 512L637 515L638 517L639 516L639 521L642 522L640 525L644 528L645 533L649 535L650 533L653 534L654 538L657 539L657 541L669 535L671 537L677 538L678 534L679 535L682 529L682 521L685 519L685 521L689 517L691 517L692 519L694 516L697 517L696 514L708 508L709 510L713 511L722 508L723 511L726 512L727 510L738 510L736 508L737 507L740 508L739 511L745 511L747 514L752 510L749 508L749 506L754 500L763 499L762 501L767 497L770 499L776 494L779 494L777 491L775 491L775 487L768 485L769 482L771 482L770 480L766 480L764 477L767 475L762 471L760 472L760 470L757 470L755 465L751 462L754 457L752 453L746 453L745 448L744 449L746 442L744 437L742 436L744 435L743 434z" id="南宁市"/><path class="leaflet-interactive" stroke="#333" stroke-opacity="1" stroke-width="1" stroke-linecap="round" stroke-linejoin="round" stroke-dasharray="1,6" fill="#eee" fill-opacity="0.5" fill-rule="evenodd" d="M824 318L826 312L829 309L827 302L830 301L829 299L822 299L819 295L816 298L812 296L812 293L811 294L809 292L809 288L803 287L803 283L800 283L799 280L795 282L785 279L779 280L779 267L780 265L782 265L781 262L783 256L783 254L780 251L788 241L788 237L791 233L790 227L794 214L790 206L792 202L797 198L794 195L796 190L788 182L788 179L792 175L786 175L784 173L786 167L789 164L787 161L786 163L782 161L781 158L776 161L773 161L772 163L769 163L768 160L766 160L764 164L759 167L761 167L762 170L758 174L758 176L753 180L753 190L749 192L744 189L741 189L741 184L738 182L740 186L737 187L736 189L734 187L736 185L733 182L730 184L721 185L721 189L717 189L714 191L713 195L718 195L721 191L723 191L723 189L725 191L726 189L730 191L725 200L727 201L727 206L730 208L725 212L718 208L713 209L710 207L705 211L703 208L704 204L702 203L703 200L694 201L694 205L693 204L691 206L691 208L694 210L689 211L687 214L689 216L688 217L687 215L685 221L688 224L687 227L689 230L688 233L691 237L691 242L697 246L696 248L695 247L693 252L698 254L700 252L699 251L706 252L708 248L713 248L714 251L718 251L721 249L721 246L724 247L727 243L731 248L732 253L730 260L721 270L722 272L729 272L732 271L732 269L737 273L735 275L735 280L737 281L736 283L734 285L733 283L731 283L731 281L726 281L722 288L716 292L720 297L718 300L714 301L714 304L708 309L710 312L711 311L713 314L717 316L725 315L727 318L722 322L722 326L716 326L715 328L715 337L717 339L716 342L720 351L726 351L728 354L732 355L731 356L733 358L734 357L736 361L739 362L742 362L742 358L748 359L749 363L752 365L752 368L754 368L754 370L757 373L761 373L767 367L768 359L775 357L777 355L778 350L787 348L790 342L794 341L796 338L800 338L800 336L803 336L805 334L807 334L807 337L805 336L805 339L807 340L815 337L817 335L815 331L818 327L820 318L822 317z" id="柳州市"/><path class="leaflet-interactive" stroke="#333" stroke-opacity="1" stroke-width="1" stroke-linecap="round" stroke-linejoin="round" stroke-dasharray="1,6" fill="#eee" fill-opacity="0.5" fill-rule="evenodd" d="M913 270L907 270L903 272L904 268L900 262L901 256L905 247L915 242L914 235L919 231L921 227L927 225L932 218L936 203L933 200L932 191L941 189L942 186L945 185L943 180L944 178L949 177L947 175L946 176L946 174L939 175L939 172L937 174L936 172L931 177L928 177L922 167L925 159L929 157L927 155L929 153L929 141L931 140L930 135L926 136L923 134L924 132L914 132L912 130L908 130L907 128L905 128L903 124L899 125L899 134L897 137L898 136L895 135L883 138L880 135L882 133L881 131L879 133L877 131L870 131L870 129L867 133L864 134L861 144L859 146L857 144L848 153L844 164L837 167L836 160L832 156L829 158L828 161L824 159L823 161L819 158L823 149L821 145L816 146L815 144L812 145L810 143L805 148L802 159L795 159L794 163L798 171L797 174L795 176L792 175L788 179L788 182L793 186L794 189L796 189L794 196L797 197L790 205L794 213L791 221L792 225L790 227L791 233L788 237L788 241L780 251L783 254L783 256L781 262L782 265L779 266L779 280L785 279L795 282L799 280L799 282L804 285L803 287L805 288L808 286L808 292L810 294L811 293L812 296L816 298L819 296L822 299L828 299L830 301L827 302L829 309L826 312L826 316L824 318L827 320L832 319L831 323L833 324L831 325L831 328L837 328L837 331L840 334L844 334L847 331L850 332L852 330L857 332L856 329L860 329L861 325L864 323L864 327L870 324L873 328L884 332L886 330L885 329L887 325L889 325L894 337L899 330L901 334L906 331L906 328L901 327L904 326L908 317L906 309L903 307L903 305L905 304L903 302L907 296L910 296L912 293L913 294L914 290L917 290L920 286L920 275L916 275L913 270z" id="桂林市"/><path class="leaflet-interactive" stroke="#333" stroke-opacity="1" stroke-width="1" stroke-linecap="round" stroke-linejoin="round" stroke-dasharray="1,6" fill="#eee" fill-opacity="0.5" fill-rule="evenodd" d="M849 359L850 367L848 370L846 370L846 374L848 375L847 376L853 377L855 379L857 378L860 384L864 381L866 384L863 392L866 394L863 398L867 401L866 405L868 404L871 415L867 419L865 427L868 431L869 430L873 432L873 437L870 441L864 442L864 452L867 453L869 451L873 451L874 454L876 454L875 456L878 457L878 459L881 457L882 458L881 459L883 467L880 470L880 474L883 478L886 478L884 485L885 490L891 492L894 500L899 502L902 498L910 498L910 496L913 494L910 491L910 489L923 489L926 487L926 484L931 482L934 476L937 474L939 470L938 466L941 465L940 462L944 459L944 456L939 455L939 449L941 447L939 444L940 442L938 437L936 437L939 433L937 430L940 424L939 423L941 416L944 417L947 412L949 407L949 401L955 399L960 400L961 396L965 393L961 391L964 382L964 369L958 364L954 364L953 361L953 359L958 355L957 349L955 350L951 347L949 348L949 354L941 356L940 361L942 364L942 369L938 377L932 377L931 375L927 375L923 369L919 369L917 374L914 376L913 380L908 383L906 382L907 386L906 388L903 387L903 391L901 391L900 393L902 396L900 398L897 397L897 395L895 395L895 385L890 380L893 376L886 370L880 368L880 363L882 362L876 360L875 358L877 349L879 347L876 345L875 342L870 341L870 338L868 336L869 332L865 330L866 329L864 323L860 326L860 328L856 328L858 332L847 331L844 334L842 334L843 337L847 337L846 342L847 341L855 345L851 349L855 350L854 352L851 352L851 354L849 351L846 354L848 355L845 358L846 357L847 359L850 359z" id="梧州市"/><path class="leaflet-interactive" stroke="#333" stroke-opacity="1" stroke-width="1" stroke-linecap="round" stroke-linejoin="round" stroke-dasharray="1,6" fill="#eee" fill-opacity="0.5" fill-rule="evenodd" d="M778 570L773 572L772 571L770 574L766 571L765 573L763 572L763 570L761 569L761 571L759 570L755 572L753 570L751 573L751 571L747 570L748 572L746 572L746 574L743 576L735 577L733 574L731 574L728 577L722 577L720 580L720 578L718 579L719 580L717 585L713 587L711 586L709 588L710 595L713 600L717 602L728 602L732 604L734 603L736 608L734 610L729 611L726 614L726 617L737 622L745 618L751 617L767 615L771 617L778 606L780 606L783 612L790 615L794 615L793 607L790 601L792 595L787 595L785 592L787 581L785 579L787 577L787 574L786 572L781 570L779 572zM730 658L732 659L732 657L734 658L736 655L734 652L730 655zM741 668L743 668L741 667z" id="北海市"/><path class="leaflet-interactive" stroke="#333" stroke-opacity="1" stroke-width="1" stroke-linecap="round" stroke-linejoin="round" stroke-dasharray="1,6" fill="#eee" fill-opacity="0.5" fill-rule="evenodd" d="M640 525L634 529L632 528L628 533L627 537L624 537L623 541L615 540L607 543L598 543L599 548L601 549L601 555L593 564L593 567L590 571L592 575L592 583L590 589L584 595L586 599L585 601L589 602L594 599L595 601L601 599L602 600L614 595L617 597L621 597L621 600L625 602L627 607L636 606L641 610L646 610L649 608L646 605L652 600L654 601L654 603L650 611L662 606L675 606L680 601L680 599L686 592L685 590L678 588L678 580L674 576L673 571L667 568L660 570L655 569L654 565L649 562L651 556L649 545L657 541L657 539L654 538L653 534L651 533L649 535L644 532L644 529L641 526z" id="防城港市"/><path class="leaflet-interactive" stroke="#333" stroke-opacity="1" stroke-width="1" stroke-linecap="round" stroke-linejoin="round" stroke-dasharray="1,6" fill="#eee" fill-opacity="0.5" fill-rule="evenodd" d="M778 570L778 568L777 569L775 565L777 565L777 560L772 549L776 541L776 533L781 530L784 532L784 528L785 529L785 527L786 528L787 526L789 526L789 524L791 526L790 527L796 531L799 530L799 527L801 525L796 519L802 511L799 506L795 504L793 504L792 507L790 507L787 503L784 502L782 496L779 497L776 494L770 499L767 497L763 499L763 501L763 499L754 500L749 505L749 508L752 510L747 514L745 511L743 512L743 510L740 511L740 509L737 507L736 508L738 510L736 511L727 510L726 512L722 508L715 511L711 511L708 508L703 510L698 514L696 513L697 516L694 516L693 519L689 516L689 518L686 521L685 519L682 520L681 522L683 523L683 525L681 526L681 531L677 535L677 537L674 538L670 535L665 538L664 537L659 539L658 541L653 542L649 545L648 548L651 551L649 555L651 556L649 562L653 564L654 567L658 570L667 568L668 570L673 571L674 575L678 580L678 588L685 590L685 593L693 597L693 595L695 596L695 600L693 601L696 600L696 596L699 600L702 600L704 598L706 598L707 600L712 598L709 592L709 588L711 586L712 587L717 585L720 580L718 580L720 578L720 580L722 577L728 577L731 574L735 576L743 576L746 575L746 572L748 572L748 570L751 573L753 570L755 572L758 572L759 570L761 571L761 569L764 573L766 571L770 574L772 571L773 572L777 570zM708 600L708 602L710 602z" id="钦州市"/><path class="leaflet-interactive" stroke="#333" stroke-opacity="1" stroke-width="1" stroke-linecap="round" stroke-linejoin="round" stroke-dasharray="1,6" fill="#eee" fill-opacity="0.5" fill-rule="evenodd" d="M783 496L789 492L789 489L794 489L791 479L793 477L795 478L797 474L801 476L798 473L801 472L799 471L796 465L797 466L804 460L807 460L812 462L815 465L815 467L819 469L820 467L823 470L824 474L828 472L833 472L835 476L837 476L837 469L841 465L841 460L842 462L843 458L847 459L850 457L852 458L858 456L863 450L864 442L870 441L873 437L873 432L869 430L868 431L865 426L867 419L871 416L869 409L870 408L868 407L868 404L866 405L867 401L863 399L863 397L866 394L863 392L866 385L864 381L860 384L857 378L855 379L854 377L847 376L848 375L846 374L846 370L848 370L850 367L849 359L842 361L840 368L840 372L842 372L842 374L840 375L840 378L837 374L833 373L832 377L827 375L820 383L812 387L812 389L809 391L809 394L806 397L807 400L804 408L804 415L801 418L795 415L792 418L790 417L786 423L783 420L781 421L772 433L766 426L763 425L761 427L757 425L755 422L752 422L747 427L747 429L745 428L741 432L744 435L743 436L746 442L744 449L745 448L745 453L752 453L754 459L751 461L755 465L757 470L760 470L760 472L762 471L767 475L764 476L764 478L766 480L771 481L768 485L773 485L775 487L775 491L778 492L779 497L782 496z" id="贵港市"/><path class="leaflet-interactive" stroke="#333" stroke-opacity="1" stroke-width="1" stroke-linecap="round" stroke-linejoin="round" stroke-dasharray="1,6" fill="#eee" fill-opacity="0.5" fill-rule="evenodd" d="M783 496L784 502L787 503L790 507L792 507L792 504L799 505L801 511L796 518L801 525L799 527L799 530L797 531L792 528L789 524L789 526L787 526L786 528L785 527L785 529L784 528L784 532L781 530L776 533L776 540L772 549L777 560L777 565L775 564L777 569L778 568L779 572L781 570L783 572L786 571L787 574L787 577L785 579L787 581L785 592L787 595L792 594L795 598L796 596L799 597L806 594L805 591L808 587L808 578L814 573L818 575L821 575L826 571L826 573L830 571L837 573L840 569L843 572L849 572L849 568L847 568L849 566L846 564L845 558L845 552L847 552L847 549L843 546L845 543L848 545L852 541L858 546L857 547L861 547L864 542L871 547L873 546L875 544L872 539L876 537L879 533L885 534L881 526L878 525L878 518L876 514L878 516L882 515L881 513L883 504L886 505L886 507L889 504L895 503L891 492L885 490L884 486L886 478L883 478L879 472L881 468L883 468L881 459L882 458L881 457L879 459L878 457L876 457L876 454L874 454L873 451L870 451L868 453L864 452L863 450L859 454L859 456L847 459L843 458L842 461L841 460L841 465L837 469L838 476L836 476L833 472L828 472L824 474L821 467L819 469L815 467L814 464L807 460L804 460L799 465L796 465L796 467L801 472L798 473L801 476L797 474L796 478L792 477L791 479L794 489L788 490L788 492L784 495z" id="玉林市"/><path class="leaflet-interactive" stroke="#333" stroke-opacity="1" stroke-width="1" stroke-linecap="round" stroke-linejoin="round" stroke-dasharray="1,6" fill="#eee" fill-opacity="0.5" fill-rule="evenodd" d="M501 255L482 265L469 265L466 268L463 268L468 278L465 288L463 287L462 290L455 294L451 300L448 299L444 291L437 291L432 294L423 287L415 286L414 283L406 284L403 282L399 272L394 269L384 271L381 267L376 264L373 268L370 267L370 269L362 276L360 285L357 287L349 288L344 296L337 298L334 302L328 298L325 298L318 291L314 293L313 297L310 300L308 299L311 299L313 301L313 305L320 321L325 324L323 326L332 332L333 328L331 323L333 319L335 320L336 318L347 320L352 323L360 320L368 322L369 327L371 326L376 330L373 335L378 342L380 342L380 346L377 348L375 347L375 349L382 358L385 356L383 354L387 352L396 360L402 362L405 360L404 359L405 354L407 352L406 351L414 350L416 351L417 359L420 360L422 357L426 358L428 356L432 358L430 360L431 361L435 361L437 358L440 360L440 354L442 351L446 353L449 351L450 354L452 353L454 355L454 359L458 362L463 373L467 376L465 377L467 380L462 384L464 391L460 403L462 406L460 407L456 414L451 416L449 419L448 414L444 412L441 413L439 410L432 413L432 416L427 417L426 420L422 423L417 423L422 427L420 428L422 430L419 431L420 429L417 429L414 432L412 432L406 440L408 445L410 446L410 456L415 457L417 455L425 458L426 460L434 464L438 471L440 471L439 470L443 468L449 469L451 464L457 463L459 465L468 465L474 472L473 474L478 477L482 477L483 475L493 473L497 468L502 471L504 470L509 476L510 472L521 461L523 456L519 455L519 451L521 448L520 446L531 441L535 434L541 432L544 434L544 436L551 435L558 430L561 432L568 428L572 430L572 434L575 436L575 438L577 439L579 437L584 439L583 440L588 441L589 443L592 443L592 441L594 440L594 434L604 435L608 432L608 430L612 428L616 430L616 426L619 424L621 419L616 421L607 418L608 411L606 409L605 401L610 397L615 396L616 392L613 387L610 388L608 384L602 383L598 386L593 384L592 380L589 379L590 376L588 374L581 380L577 376L575 376L576 373L574 371L568 371L565 363L562 367L554 365L551 358L547 358L542 361L535 355L537 354L536 352L533 354L530 352L531 351L528 347L528 344L533 341L530 332L530 328L532 326L531 324L528 324L523 318L524 316L522 312L519 310L520 303L515 302L516 303L513 304L512 302L515 299L522 298L524 296L519 291L512 288L510 285L515 282L521 285L522 281L526 278L527 279L525 274L519 270L515 263L515 261L519 260L517 254L513 254L510 258L506 257L504 259L502 257zM367 271L366 272z" id="百色市"/><path class="leaflet-interactive" stroke="#333" stroke-opacity="1" stroke-width="1" stroke-linecap="round" stroke-linejoin="round" stroke-dasharray="1,6" fill="#eee" fill-opacity="0.5" fill-rule="evenodd" d="M964 380L967 382L970 380L972 382L977 383L980 380L978 375L979 373L983 372L982 370L987 369L990 365L984 353L984 341L990 341L991 338L994 338L1001 327L998 320L995 319L994 317L996 310L990 304L989 301L991 299L990 295L992 292L998 290L993 287L984 288L984 286L979 287L976 285L969 285L963 291L962 296L959 294L955 300L953 300L949 296L944 296L948 284L945 278L945 274L947 271L944 268L947 261L944 261L942 259L944 254L941 251L939 251L938 253L934 253L929 248L920 258L914 260L913 270L916 275L920 275L920 286L917 290L914 290L913 294L912 293L910 296L907 296L903 302L905 303L903 307L906 309L908 317L904 326L901 327L906 328L907 331L902 334L900 330L898 331L894 338L890 325L887 325L885 332L872 327L872 325L870 324L868 324L865 327L865 330L867 332L870 332L868 336L870 338L870 341L875 342L876 345L879 347L877 349L875 358L876 360L882 362L879 368L886 370L893 376L890 379L892 383L894 382L895 395L897 395L897 397L902 397L900 393L901 391L903 391L903 387L905 388L907 386L906 382L908 383L912 381L914 376L917 375L919 369L923 369L926 375L937 377L942 369L942 364L940 362L941 356L949 354L948 352L949 350L950 351L950 347L955 350L957 349L958 354L953 359L953 361L954 363L963 367L964 377z" id="贺州市"/><path class="leaflet-interactive" stroke="#333" stroke-opacity="1" stroke-width="1" stroke-linecap="round" stroke-linejoin="round" stroke-dasharray="1,6" fill="#eee" fill-opacity="0.5" fill-rule="evenodd" d="M501 255L504 259L508 257L510 258L513 255L517 254L519 260L515 261L515 263L519 270L525 274L527 278L523 279L521 285L516 282L510 284L512 288L519 291L524 296L522 298L515 299L512 304L516 303L515 302L520 303L519 310L523 314L523 317L526 322L532 326L530 327L530 331L533 341L528 344L531 351L530 352L533 354L536 352L536 356L542 361L546 358L551 358L554 365L562 367L565 364L568 371L573 373L574 371L575 376L577 376L580 380L588 374L590 375L589 379L593 384L598 386L602 383L608 384L609 388L613 387L616 391L615 396L605 401L606 408L609 406L613 407L615 403L617 402L617 404L622 402L626 398L628 399L628 401L630 401L631 396L633 396L633 394L635 393L633 386L637 383L640 384L643 378L646 381L648 381L647 379L650 376L650 378L652 378L653 383L654 382L657 384L657 382L660 380L658 379L661 373L665 372L664 367L666 362L671 360L673 361L673 363L676 361L683 363L682 360L686 359L686 349L690 350L693 348L694 345L695 338L692 335L696 335L698 333L700 326L708 330L710 337L715 338L716 326L722 326L722 322L727 319L725 315L717 316L712 311L710 312L708 310L708 307L714 305L713 302L718 300L720 297L716 292L722 288L726 281L731 281L731 283L733 283L734 285L737 281L735 278L735 275L737 273L733 269L732 271L729 272L723 272L721 270L730 260L732 253L727 243L724 247L722 246L719 251L715 251L713 248L708 248L704 252L700 251L698 254L694 252L693 253L695 247L696 248L697 246L691 242L690 234L685 230L685 227L676 218L674 217L671 219L667 213L660 210L659 213L653 217L654 219L652 221L652 218L649 217L646 219L646 221L647 220L649 222L648 224L645 224L646 226L644 229L644 240L642 240L642 242L639 244L632 244L620 249L617 252L610 252L612 248L612 246L609 244L610 241L609 239L604 244L604 241L601 239L600 232L598 232L596 238L594 237L594 239L591 239L587 243L584 242L584 233L581 235L578 229L579 225L576 222L573 224L569 223L568 220L571 219L570 214L561 207L562 205L560 202L553 207L546 207L547 211L541 215L540 219L537 220L539 227L542 229L542 236L539 238L540 239L532 239L530 245L519 245L516 247L510 246L507 248L508 250L503 255z" id="河池市"/><path class="leaflet-interactive" stroke="#333" stroke-opacity="1" stroke-width="1" stroke-linecap="round" stroke-linejoin="round" stroke-dasharray="1,6" fill="#eee" fill-opacity="0.5" fill-rule="evenodd" d="M715 338L711 337L706 328L700 326L698 330L699 333L696 335L692 335L695 338L692 349L686 349L685 351L686 359L682 359L683 362L680 363L676 361L675 362L677 365L673 365L671 367L672 368L670 371L672 372L672 374L674 374L672 378L673 379L669 381L671 384L672 383L671 385L676 387L675 391L677 393L677 396L680 396L681 393L683 393L683 391L686 390L685 389L693 385L698 384L703 387L702 390L705 392L702 395L702 399L704 400L703 402L705 405L706 413L708 415L707 416L710 416L715 421L714 424L716 427L719 428L720 426L721 428L727 428L728 431L731 429L730 431L732 434L735 433L740 437L741 433L742 434L741 432L745 428L747 429L747 427L752 422L756 423L756 425L759 425L761 427L763 425L766 425L772 433L783 420L785 423L788 421L790 417L794 417L794 415L799 416L801 419L804 416L804 408L807 400L806 397L807 395L809 395L809 391L812 389L812 387L820 383L827 375L832 377L832 373L837 374L840 378L840 375L842 374L842 372L840 372L840 366L842 362L850 358L847 359L846 356L848 355L846 354L849 351L851 354L851 352L855 351L854 349L852 349L855 345L851 342L846 342L847 337L843 337L842 334L840 334L837 331L838 328L831 328L833 324L831 321L832 319L828 320L822 317L820 318L818 327L815 330L817 335L815 337L808 340L805 339L805 336L807 337L807 334L805 334L800 336L800 338L796 338L793 342L790 342L787 348L778 350L777 355L775 357L769 358L767 360L768 365L766 368L765 367L763 372L756 373L754 368L752 368L752 365L749 363L748 359L742 358L742 362L739 362L736 361L734 357L731 357L732 355L727 353L726 351L720 351L719 347L717 346L716 338z" id="来宾市"/><path class="leaflet-interactive" stroke="#333" stroke-opacity="1" stroke-width="1" stroke-linecap="round" stroke-linejoin="round" stroke-dasharray="1,6" fill="#eee" fill-opacity="0.5" fill-rule="evenodd" d="M510 474L515 475L514 476L518 480L520 480L519 482L524 481L526 483L519 489L519 491L521 492L515 499L516 501L514 505L510 505L505 502L503 514L502 516L501 515L501 520L503 523L503 525L501 526L502 528L509 528L511 534L513 534L512 536L514 540L513 542L511 542L511 545L513 546L512 548L515 554L511 562L512 564L513 565L518 560L521 561L523 564L533 564L534 567L537 569L542 567L546 570L546 572L541 576L541 578L557 586L560 590L563 591L565 588L568 587L574 596L573 600L576 601L581 596L586 594L591 588L591 568L593 567L592 566L602 553L598 544L607 543L615 540L622 541L632 528L633 529L638 527L642 523L641 521L639 521L639 516L638 517L630 512L633 509L631 504L632 502L639 500L641 498L639 492L636 497L634 496L631 493L634 485L629 483L629 479L621 478L619 475L613 475L608 468L598 468L604 475L602 477L599 474L600 473L596 472L593 474L593 477L587 478L585 476L584 471L586 469L584 460L581 458L576 458L574 460L571 458L576 454L573 453L570 449L573 448L572 444L574 442L575 436L572 434L572 431L568 428L561 432L558 430L551 435L544 436L544 434L541 432L537 433L533 436L533 439L531 441L520 445L521 448L519 454L520 456L522 454L523 456L522 461L519 462L510 472z" id="崇左市"/></g></svg>