<svg xmlns="http://www.w3.org/2000/svg" pointer-events="none" class="leaflet-zoom-animated" width="1451" height="830" viewBox="-923 151 1451 830" style="transform: translate3d(-923px, 151px, 0px);"><g><path class="leaflet-interactive" stroke="black" stroke-opacity="1" stroke-width="2" stroke-linecap="round" stroke-linejoin="round" fill="#fff" fill-opacity="0.2" fill-rule="evenodd" d="M-197 488L-203 487L-203 476L-210 471L-211 467L-215 468L-217 471L-217 475L-220 477L-228 473L-229 476L-231 476L-231 474L-236 470L-235 464L-230 454L-230 446L-239 446L-241 448L-245 443L-251 444L-254 441L-259 447L-264 449L-266 461L-270 465L-272 474L-277 475L-282 472L-286 477L-288 481L-283 486L-283 492L-280 496L-282 505L-288 508L-292 506L-297 510L-299 520L-291 525L-289 527L-288 532L-284 534L-288 543L-282 549L-284 553L-286 553L-287 557L-290 558L-295 564L-296 567L-290 575L-288 583L-291 589L-290 594L-291 596L-293 596L-291 600L-293 603L-292 607L-293 605L-294 606L-294 622L-298 628L-301 640L-306 647L-311 649L-314 658L-309 665L-310 668L-312 669L-311 675L-313 677L-313 683L-311 684L-317 686L-317 693L-315 695L-317 695L-318 697L-316 699L-315 704L-317 705L-317 715L-315 716L-307 712L-302 715L-286 718L-283 720L-282 717L-278 716L-278 718L-275 721L-268 720L-269 728L-265 731L-262 730L-259 726L-257 732L-259 735L-259 739L-258 738L-255 743L-253 743L-253 741L-251 740L-251 745L-249 748L-246 747L-242 750L-236 745L-231 753L-228 751L-224 753L-223 752L-221 754L-218 753L-216 755L-220 757L-220 762L-218 764L-219 767L-217 773L-220 777L-224 777L-224 788L-227 790L-221 795L-211 792L-213 796L-211 800L-214 801L-210 802L-214 806L-211 809L-212 813L-208 813L-206 810L-206 812L-201 810L-199 811L-201 814L-201 818L-199 818L-199 821L-188 823L-180 818L-176 818L-171 815L-167 817L-167 819L-165 820L-160 820L-161 814L-163 812L-162 811L-160 813L-156 813L-156 810L-148 801L-148 808L-145 810L-142 808L-141 804L-133 804L-130 809L-124 813L-116 817L-109 817L-108 819L-105 819L-103 818L-103 809L-99 805L-96 805L-92 810L-92 817L-88 820L-89 823L-87 831L-82 825L-83 824L-80 822L-81 821L-78 820L-79 819L-76 815L-73 823L-70 823L-65 820L-63 816L-61 816L-63 812L-66 812L-73 808L-67 807L-67 803L-63 799L-59 790L-61 787L-58 785L-64 774L-68 771L-69 765L-66 762L-68 758L-64 755L-64 752L-61 747L-55 748L-52 742L-47 742L-48 738L-46 736L-44 737L-39 729L-35 727L-37 716L-35 705L-37 702L-41 704L-45 703L-48 699L-48 694L-55 695L-57 697L-63 696L-63 698L-67 697L-69 699L-69 697L-67 696L-68 690L-72 688L-71 686L-75 674L-72 668L-73 667L-69 662L-70 660L-66 650L-60 646L-57 646L-56 644L-54 645L-52 642L-46 639L-45 635L-47 626L-41 621L-33 608L-28 609L-23 606L-20 603L-18 597L-15 597L-11 591L-11 588L-6 577L-7 569L-4 561L-10 552L-10 538L-8 535L7 532L10 527L13 528L14 522L11 516L13 512L21 510L24 507L17 507L17 503L13 503L10 505L4 504L3 500L-1 502L-3 499L-12 506L-13 510L-20 508L-22 503L-26 499L-24 499L-24 497L-27 495L-26 494L-29 492L-29 490L-31 490L-27 480L-27 476L-24 474L-23 471L-17 469L-22 465L-17 459L-17 454L-19 450L-16 443L-18 442L-17 437L-13 436L-13 429L-15 425L-21 427L-27 426L-29 424L-28 419L-47 419L-52 416L-58 415L-58 413L-65 412L-65 408L-68 407L-71 402L-76 405L-76 414L-80 416L-77 422L-79 429L-81 426L-84 425L-92 426L-96 429L-105 428L-110 430L-114 426L-112 422L-113 417L-115 417L-117 421L-119 421L-121 418L-127 416L-133 418L-136 413L-144 422L-147 422L-149 428L-149 436L-154 443L-159 447L-162 444L-168 449L-170 453L-180 462L-180 465L-184 469L-183 471L-188 484L-193 487L-196 487z" id="桂林市"/><path class="leaflet-interactive" stroke="#333" stroke-opacity="1" stroke-width="1" stroke-linecap="round" stroke-linejoin="round" stroke-dasharray="1,6" fill="#eee" fill-opacity="0.5" fill-rule="evenodd" d="M-193 625L-198 623L-193 615L-195 617L-195 615L-199 614L-204 624L-203 626L-205 626L-208 632L-206 637L-204 635L-200 635L-201 634L-198 632L-201 631L-197 627L-194 628z" id="秀峰区"/><path class="leaflet-interactive" stroke="#333" stroke-opacity="1" stroke-width="1" stroke-linecap="round" stroke-linejoin="round" stroke-dasharray="1,6" fill="#eee" fill-opacity="0.5" fill-rule="evenodd" d="M-179 622L-179 619L-177 617L-182 614L-183 610L-188 611L-189 614L-193 615L-196 619L-195 620L-198 622L-193 625L-193 623L-190 621L-190 623L-186 625L-184 623L-181 623z" id="叠彩区"/><path class="leaflet-interactive" stroke="#333" stroke-opacity="1" stroke-width="1" stroke-linecap="round" stroke-linejoin="round" stroke-dasharray="1,6" fill="#eee" fill-opacity="0.5" fill-rule="evenodd" d="M-191 636L-195 632L-195 627L-197 627L-201 630L-198 632L-201 633L-200 635L-203 635L-206 638L-205 646L-198 650L-200 656L-192 655L-190 652L-189 649L-192 650L-192 647L-188 643L-189 641L-192 641L-191 636z" id="象山区"/><path class="leaflet-interactive" stroke="#333" stroke-opacity="1" stroke-width="1" stroke-linecap="round" stroke-linejoin="round" stroke-dasharray="1,6" fill="#eee" fill-opacity="0.5" fill-rule="evenodd" d="M-179 622L-184 623L-186 625L-190 621L-193 623L-195 632L-191 636L-189 637L-186 635L-180 640L-179 637L-177 637L-178 635L-175 627L-177 622z" id="七星区"/><path class="leaflet-interactive" stroke="#333" stroke-opacity="1" stroke-width="1" stroke-linecap="round" stroke-linejoin="round" stroke-dasharray="1,6" fill="#eee" fill-opacity="0.5" fill-rule="evenodd" d="M-179 640L-185 635L-189 637L-191 636L-192 641L-189 641L-188 643L-189 646L-192 646L-192 649L-189 649L-191 655L-200 656L-202 661L-199 663L-199 665L-202 668L-199 673L-196 675L-192 674L-190 676L-189 681L-187 680L-186 683L-184 682L-187 680L-174 680L-167 671L-163 674L-159 669L-164 663L-170 659L-169 654L-174 652L-174 656L-177 658L-179 655L-178 653L-181 651L-177 648L-179 645L-179 641z" id="雁山区"/><path class="leaflet-interactive" stroke="#333" stroke-opacity="1" stroke-width="1" stroke-linecap="round" stroke-linejoin="round" stroke-dasharray="1,6" fill="#eee" fill-opacity="0.5" fill-rule="evenodd" d="M-228 550L-228 546L-234 547L-237 545L-245 547L-250 544L-256 547L-262 547L-263 549L-259 557L-261 562L-261 569L-265 570L-267 569L-268 566L-273 566L-279 575L-277 580L-275 581L-278 584L-285 582L-288 583L-291 591L-290 594L-285 595L-285 599L-282 597L-278 597L-277 594L-269 598L-272 605L-271 611L-275 609L-276 610L-274 610L-275 611L-273 614L-275 615L-273 616L-275 624L-274 627L-269 627L-268 629L-270 637L-272 639L-271 646L-262 647L-257 653L-257 656L-252 654L-243 654L-237 650L-235 651L-230 658L-230 662L-227 668L-221 670L-221 672L-218 672L-218 681L-214 684L-213 687L-215 690L-212 704L-214 708L-213 711L-207 716L-203 714L-199 715L-192 708L-193 704L-186 701L-189 691L-192 689L-189 686L-185 685L-187 680L-189 681L-191 674L-195 675L-199 673L-202 666L-199 665L-199 663L-202 661L-198 653L-198 650L-203 648L-205 644L-206 645L-205 641L-207 632L-203 624L-205 624L-206 621L-208 620L-207 617L-215 609L-215 606L-212 606L-211 604L-216 602L-221 604L-221 599L-225 597L-228 598L-226 584L-226 574L-228 572L-223 568L-223 564L-227 564L-230 559L-231 556L-229 551z" id="临桂区"/><path class="leaflet-interactive" stroke="#333" stroke-opacity="1" stroke-width="1" stroke-linecap="round" stroke-linejoin="round" stroke-dasharray="1,6" fill="#eee" fill-opacity="0.5" fill-rule="evenodd" d="M-137 671L-145 671L-151 678L-155 672L-160 672L-162 674L-167 671L-173 677L-173 680L-187 680L-184 682L-186 683L-185 685L-192 688L-189 691L-186 701L-193 703L-192 707L-197 714L-203 714L-207 716L-204 726L-206 731L-203 733L-201 732L-197 735L-197 737L-194 736L-192 739L-190 739L-189 737L-181 740L-180 748L-177 747L-170 749L-169 747L-167 747L-163 751L-154 749L-149 754L-145 754L-144 756L-139 754L-135 749L-138 748L-141 736L-130 731L-127 727L-129 715L-124 705L-124 700L-129 693L-133 676L-136 671z" id="阳朔县"/><path class="leaflet-interactive" stroke="#333" stroke-opacity="1" stroke-width="1" stroke-linecap="round" stroke-linejoin="round" stroke-dasharray="1,6" fill="#eee" fill-opacity="0.5" fill-rule="evenodd" d="M-179 640L-179 645L-177 648L-181 650L-178 653L-179 655L-177 658L-174 656L-175 652L-169 654L-170 659L-162 665L-159 669L-161 671L-155 672L-151 678L-147 672L-136 670L-135 665L-131 666L-131 659L-128 657L-116 657L-112 660L-106 659L-105 657L-114 648L-117 636L-113 634L-115 629L-110 620L-116 621L-115 618L-118 618L-122 613L-129 614L-133 611L-146 614L-147 606L-149 605L-151 600L-154 600L-157 594L-154 591L-157 588L-152 582L-161 582L-163 586L-165 586L-166 584L-164 581L-167 576L-167 573L-169 573L-177 564L-180 568L-184 569L-186 567L-185 563L-195 555L-194 549L-196 546L-197 534L-201 530L-200 525L-210 525L-212 527L-212 532L-216 542L-223 545L-229 551L-231 556L-227 564L-223 563L-223 568L-228 572L-226 574L-228 597L-221 599L-221 603L-219 604L-216 602L-212 604L-212 606L-215 605L-215 608L-213 610L-213 613L-209 614L-209 616L-207 617L-208 619L-204 624L-199 614L-195 615L-195 617L-191 615L-188 611L-183 610L-178 617L-179 621L-177 622L-175 627L-178 635L-177 636L-179 637z" id="灵川县"/><path class="leaflet-interactive" stroke="#333" stroke-opacity="1" stroke-width="1" stroke-linecap="round" stroke-linejoin="round" stroke-dasharray="1,6" fill="#eee" fill-opacity="0.5" fill-rule="evenodd" d="M-80 429L-86 435L-91 447L-95 452L-99 454L-107 469L-114 478L-112 486L-116 490L-118 498L-123 501L-125 506L-129 510L-131 516L-129 521L-132 525L-129 528L-127 534L-124 535L-116 532L-114 534L-109 528L-106 529L-102 533L-107 535L-99 542L-95 541L-95 548L-100 556L-102 572L-99 578L-95 577L-90 583L-79 583L-75 579L-73 572L-74 564L-72 561L-64 559L-58 560L-53 557L-49 557L-47 555L-47 548L-39 548L-39 539L-36 534L-31 533L-27 530L-23 534L-18 535L-16 537L-19 540L-14 542L-10 540L-8 535L7 532L10 527L14 527L13 518L11 516L13 512L21 510L24 507L17 507L17 503L13 503L10 505L4 504L3 500L-1 502L-3 499L-12 506L-13 510L-19 509L-26 499L-24 499L-24 497L-27 495L-26 494L-29 492L-29 490L-31 490L-27 480L-27 476L-24 474L-23 471L-17 469L-22 465L-17 459L-17 454L-19 450L-16 443L-18 442L-17 437L-13 436L-12 432L-15 425L-24 427L-29 424L-28 419L-47 419L-52 416L-56 416L-58 415L-58 413L-65 412L-65 408L-68 407L-71 402L-76 405L-76 414L-80 416L-77 422L-79 429z" id="全州县"/><path class="leaflet-interactive" stroke="#333" stroke-opacity="1" stroke-width="1" stroke-linecap="round" stroke-linejoin="round" stroke-dasharray="1,6" fill="#eee" fill-opacity="0.5" fill-rule="evenodd" d="M-183 513L-193 513L-196 516L-199 524L-205 524L-201 525L-201 530L-197 534L-196 545L-194 548L-195 555L-193 558L-185 563L-186 567L-184 569L-180 568L-177 564L-169 573L-167 573L-166 578L-164 580L-166 584L-165 586L-163 586L-161 582L-155 581L-154 583L-152 581L-154 586L-157 588L-154 590L-157 594L-147 606L-146 614L-137 611L-130 612L-129 614L-122 613L-120 614L-119 618L-115 618L-116 620L-111 621L-107 616L-94 607L-91 610L-87 609L-88 598L-83 593L-83 589L-78 586L-79 583L-90 583L-95 577L-99 578L-101 576L-102 566L-100 556L-95 548L-94 543L-99 542L-105 536L-107 536L-106 534L-102 533L-104 530L-108 528L-114 534L-116 532L-121 535L-127 534L-131 525L-135 527L-139 524L-138 516L-140 514L-152 514L-154 508L-159 506L-162 499L-167 500L-174 509L-178 516L-177 522L-180 523L-181 527L-183 528L-186 524L-185 520L-182 517L-182 513z" id="兴安县"/><path class="leaflet-interactive" stroke="#333" stroke-opacity="1" stroke-width="1" stroke-linecap="round" stroke-linejoin="round" stroke-dasharray="1,6" fill="#eee" fill-opacity="0.5" fill-rule="evenodd" d="M-223 752L-222 750L-224 746L-223 743L-221 743L-220 736L-212 732L-212 730L-206 731L-204 726L-206 717L-214 709L-212 706L-215 693L-213 687L-218 681L-218 672L-227 669L-227 666L-230 663L-230 658L-235 651L-237 650L-243 654L-252 654L-257 656L-259 650L-262 647L-270 647L-272 645L-272 639L-270 637L-268 627L-273 628L-275 625L-273 618L-273 616L-275 616L-273 614L-275 611L-274 610L-276 610L-275 609L-271 611L-272 606L-269 598L-277 594L-278 597L-282 597L-284 599L-286 594L-290 594L-291 596L-293 596L-291 600L-293 603L-292 607L-293 605L-294 606L-294 622L-298 628L-301 640L-306 647L-311 649L-314 658L-309 665L-310 668L-312 669L-311 675L-313 677L-313 683L-311 684L-317 686L-317 693L-315 695L-317 695L-318 697L-316 699L-315 704L-317 705L-317 715L-315 716L-307 712L-302 715L-286 718L-283 720L-282 717L-278 716L-278 718L-275 721L-268 720L-269 728L-265 731L-262 730L-259 726L-257 732L-259 735L-259 739L-258 738L-255 743L-253 743L-253 741L-251 740L-251 745L-249 748L-246 747L-242 750L-236 745L-231 753L-228 751L-224 752z" id="永福县"/><path class="leaflet-interactive" stroke="#333" stroke-opacity="1" stroke-width="1" stroke-linecap="round" stroke-linejoin="round" stroke-dasharray="1,6" fill="#eee" fill-opacity="0.5" fill-rule="evenodd" d="M-10 540L-16 542L-19 540L-16 538L-17 535L-22 534L-26 530L-29 531L-38 536L-38 548L-46 548L-48 557L-52 557L-57 560L-64 559L-72 561L-74 564L-74 577L-78 581L-79 587L-83 589L-83 593L-87 595L-88 598L-87 609L-91 610L-94 607L-108 617L-115 629L-113 633L-117 635L-116 639L-112 640L-108 644L-105 643L-103 647L-97 647L-94 645L-93 641L-89 636L-80 634L-79 638L-74 635L-64 634L-62 631L-56 630L-44 624L-33 608L-28 609L-23 606L-20 603L-18 597L-15 597L-11 591L-11 588L-6 577L-7 569L-4 561L-10 552L-10 543z" id="灌阳县"/><path class="leaflet-interactive" stroke="#333" stroke-opacity="1" stroke-width="1" stroke-linecap="round" stroke-linejoin="round" stroke-dasharray="1,6" fill="#eee" fill-opacity="0.5" fill-rule="evenodd" d="M-197 488L-203 487L-203 476L-210 471L-211 467L-215 468L-217 471L-217 475L-220 477L-228 473L-229 476L-231 476L-231 474L-235 472L-235 464L-230 454L-230 446L-239 446L-241 448L-245 443L-251 444L-254 441L-259 447L-264 449L-266 461L-270 465L-272 474L-277 475L-282 472L-288 481L-283 486L-283 492L-280 496L-282 505L-288 508L-292 506L-297 510L-299 518L-298 521L-289 527L-288 532L-284 534L-288 543L-282 549L-284 553L-286 553L-287 557L-290 558L-295 564L-296 567L-290 575L-288 583L-286 582L-278 584L-275 582L-279 576L-277 569L-275 570L-273 566L-270 565L-265 570L-261 570L-262 568L-259 558L-263 549L-262 547L-256 547L-250 544L-245 547L-239 545L-234 547L-228 546L-228 549L-226 549L-223 545L-216 542L-212 532L-211 525L-198 523L-193 513L-184 513L-185 504L-189 501L-192 501L-193 503L-196 502L-194 494L-197 489z" id="龙胜各族自治县"/><path class="leaflet-interactive" stroke="#333" stroke-opacity="1" stroke-width="1" stroke-linecap="round" stroke-linejoin="round" stroke-dasharray="1,6" fill="#eee" fill-opacity="0.5" fill-rule="evenodd" d="M-80 429L-80 427L-84 425L-92 426L-96 429L-105 428L-110 430L-114 426L-112 422L-113 417L-115 417L-117 421L-119 421L-121 418L-127 416L-133 418L-136 413L-144 422L-147 422L-149 428L-149 436L-154 443L-159 447L-162 444L-168 449L-170 453L-180 462L-180 465L-184 469L-183 471L-188 484L-197 488L-194 493L-196 502L-193 503L-192 501L-190 501L-184 505L-185 509L-182 517L-185 520L-185 526L-181 528L-180 523L-177 522L-178 516L-170 503L-165 499L-163 499L-159 506L-154 508L-152 514L-140 514L-138 516L-139 524L-135 527L-133 526L-129 522L-131 518L-129 510L-125 506L-123 501L-118 498L-116 490L-112 487L-114 478L-107 469L-99 454L-93 450L-86 435L-81 430z" id="资源县"/><path class="leaflet-interactive" stroke="#333" stroke-opacity="1" stroke-width="1" stroke-linecap="round" stroke-linejoin="round" stroke-dasharray="1,6" fill="#eee" fill-opacity="0.5" fill-rule="evenodd" d="M-124 705L-129 715L-127 726L-129 730L-141 736L-138 747L-137 749L-135 749L-139 754L-142 755L-145 761L-144 763L-146 764L-146 769L-142 778L-141 792L-139 794L-134 792L-132 794L-129 794L-129 808L-122 809L-121 814L-116 817L-109 817L-108 819L-105 819L-103 818L-103 809L-99 805L-94 806L-92 810L-92 817L-88 820L-89 823L-87 831L-82 825L-83 824L-80 822L-81 821L-78 820L-79 819L-76 815L-73 823L-70 823L-65 820L-63 816L-61 816L-63 812L-66 812L-73 808L-67 807L-67 803L-63 799L-59 790L-61 787L-58 785L-58 783L-62 779L-64 774L-68 771L-69 765L-66 762L-68 758L-73 759L-77 754L-79 755L-87 750L-95 729L-99 728L-100 730L-102 730L-104 725L-107 723L-107 717L-113 711L-117 710L-121 705L-124 705z" id="平乐县"/><path class="leaflet-interactive" stroke="#333" stroke-opacity="1" stroke-width="1" stroke-linecap="round" stroke-linejoin="round" stroke-dasharray="1,6" fill="#eee" fill-opacity="0.5" fill-rule="evenodd" d="M-68 758L-64 755L-64 752L-61 747L-55 748L-52 742L-47 742L-48 738L-46 736L-44 737L-39 729L-35 727L-37 716L-35 710L-36 703L-45 703L-48 699L-48 694L-55 695L-57 697L-63 696L-63 698L-67 697L-69 699L-69 697L-67 696L-68 690L-72 688L-71 686L-75 674L-72 668L-73 667L-69 662L-70 660L-66 650L-60 646L-57 646L-56 644L-54 645L-52 642L-46 639L-45 635L-48 625L-50 628L-62 631L-64 634L-74 635L-78 638L-80 637L-79 634L-89 636L-97 647L-103 647L-105 643L-108 644L-112 640L-114 640L-115 646L-105 657L-105 659L-112 660L-116 657L-128 657L-131 659L-131 666L-135 665L-137 671L-135 672L-129 693L-124 700L-124 705L-121 705L-117 710L-113 711L-107 717L-107 722L-102 728L-102 730L-100 730L-99 728L-95 729L-95 733L-92 736L-93 737L-87 750L-80 755L-77 754L-73 759L-69 758z" id="恭城瑶族自治县"/><path class="leaflet-interactive" stroke="#333" stroke-opacity="1" stroke-width="1" stroke-linecap="round" stroke-linejoin="round" stroke-dasharray="1,6" fill="#eee" fill-opacity="0.5" fill-rule="evenodd" d="M-223 752L-221 754L-218 753L-216 755L-220 757L-217 773L-220 777L-224 777L-224 788L-227 790L-221 795L-211 792L-213 796L-211 800L-214 801L-210 802L-214 806L-211 809L-212 813L-208 813L-206 810L-206 812L-201 810L-199 811L-201 814L-201 818L-199 818L-199 821L-188 823L-180 818L-176 818L-171 815L-167 817L-167 819L-165 820L-160 820L-161 814L-163 812L-162 811L-160 813L-156 813L-156 810L-148 801L-148 808L-145 810L-139 803L-133 804L-129 810L-121 814L-122 809L-129 808L-129 795L-134 792L-139 794L-141 792L-142 778L-146 770L-146 765L-144 763L-145 761L-142 755L-144 756L-145 754L-149 754L-154 749L-163 751L-167 747L-169 747L-170 749L-176 747L-179 748L-181 747L-181 740L-189 737L-190 739L-192 739L-195 736L-197 737L-198 734L-212 730L-214 734L-220 736L-221 743L-223 743L-224 745L-222 750z" id="荔浦市"/></g></svg>