<svg xmlns="http://www.w3.org/2000/svg" pointer-events="none" class="leaflet-zoom-animated" width="1451" height="830" viewBox="-923 151 1451 830" style="transform: translate3d(-923px, 151px, 0px);"><g><path class="leaflet-interactive" stroke="black" stroke-opacity="1" stroke-width="2" stroke-linecap="round" stroke-linejoin="round" fill="#eee" fill-opacity="0.5" fill-rule="evenodd" d="M-237 366L-237 374L-239 380L-253 393L-256 411L-256 428L-249 448L-250 458L-259 471L-266 475L-280 479L-293 480L-304 487L-301 499L-293 510L-290 538L-288 540L-282 540L-280 542L-296 560L-304 562L-308 565L-307 572L-311 579L-310 581L-318 587L-317 597L-322 601L-323 605L-318 611L-318 614L-324 626L-323 630L-320 634L-313 638L-307 656L-303 680L-303 711L-299 719L-294 720L-277 714L-266 721L-254 723L-253 779L-242 781L-229 780L-225 783L-224 800L-212 804L-209 808L-202 812L-198 813L-182 811L-176 813L-170 819L-155 822L-150 813L-150 809L-156 797L-154 789L-146 775L-137 766L-125 764L-117 766L-108 785L-109 812L-94 823L-94 837L-91 843L-90 850L-91 858L-88 867L-86 867L-69 845L-70 839L-68 837L-59 835L-58 833L-65 828L-51 826L-54 821L-45 808L-45 806L-39 808L-33 823L-34 831L-32 836L-30 838L-21 839L-8 827L0 827L5 817L7 809L16 809L14 803L14 796L10 792L3 793L-1 791L-9 791L-16 786L-20 786L-26 783L-31 778L-28 774L-24 774L-18 778L-11 775L-8 772L-5 756L8 743L12 735L16 717L26 706L25 702L18 694L16 688L27 683L30 679L29 676L20 666L14 663L11 659L5 640L-10 629L-16 619L-17 609L-7 600L-1 589L-13 577L-23 582L-31 583L-41 573L-44 563L-57 566L-66 558L-88 543L-91 538L-91 531L-95 521L-99 517L-105 500L-110 492L-109 488L-114 480L-117 479L-120 475L-118 462L-128 462L-134 455L-137 464L-141 466L-143 466L-144 464L-145 465L-148 457L-151 454L-158 440L-166 436L-168 432L-171 424L-169 415L-170 410L-188 392L-207 386L-218 371L-224 367L-233 365z" id="平乐县"/></g></svg>