<svg xmlns="http://www.w3.org/2000/svg" pointer-events="none" class="leaflet-zoom-animated" width="1451" height="830" viewBox="-1316 676 1451 830" style="transform: translate3d(-1316px, 676px, 0px);"><g><path class="leaflet-interactive" stroke="black" stroke-opacity="1" stroke-width="2" stroke-linecap="round" stroke-linejoin="round" fill="#fff" fill-opacity="0.2" fill-rule="evenodd" d="M-442 1006L-455 1015L-493 1030L-500 1030L-524 1023L-533 1025L-550 1039L-563 1047L-582 1041L-608 1030L-619 1022L-622 1018L-622 1012L-617 997L-620 988L-629 986L-636 994L-658 1007L-667 1017L-669 1022L-669 1028L-663 1045L-664 1058L-674 1084L-688 1112L-688 1120L-683 1134L-684 1144L-688 1150L-701 1162L-701 1170L-684 1183L-681 1199L-675 1203L-671 1202L-670 1197L-658 1200L-650 1211L-633 1226L-601 1249L-599 1249L-596 1246L-595 1241L-592 1238L-568 1237L-559 1220L-549 1219L-523 1247L-460 1291L-448 1295L-450 1286L-445 1278L-448 1247L-444 1241L-440 1240L-429 1239L-420 1242L-415 1240L-415 1236L-423 1224L-425 1214L-424 1209L-419 1204L-410 1202L-409 1191L-422 1177L-425 1171L-424 1166L-419 1162L-407 1146L-405 1139L-405 1113L-399 1102L-396 1100L-386 1098L-379 1092L-381 1088L-395 1077L-396 1049L-400 1034L-404 1031L-419 1012L-428 1008z" id="七星区"/></g></svg>