<svg xmlns="http://www.w3.org/2000/svg" pointer-events="none" class="leaflet-zoom-animated" width="1451" height="830" viewBox="-1300 601 1451 830" style="transform: translate3d(-1300px, 601px, 0px);"><g><path class="leaflet-interactive" stroke="black" stroke-opacity="1" stroke-width="2" stroke-linecap="round" stroke-linejoin="round" fill="#eee" fill-opacity="0.5" fill-rule="evenodd" d="M-416 971L-433 956L-441 945L-453 942L-456 948L-462 946L-465 941L-467 928L-484 915L-484 907L-471 895L-467 889L-466 879L-471 865L-471 857L-464 844L-476 838L-480 833L-485 835L-494 830L-500 833L-504 830L-513 830L-518 834L-535 840L-537 842L-540 858L-547 869L-556 874L-571 874L-580 876L-585 881L-584 895L-564 891L-557 891L-552 894L-548 893L-539 904L-538 909L-538 913L-546 919L-575 931L-580 935L-580 940L-574 954L-575 959L-583 962L-589 962L-599 956L-612 956L-627 960L-638 964L-644 970L-647 990L-661 990L-659 1008L-664 1013L-666 1022L-663 1027L-660 1039L-647 1049L-647 1052L-648 1056L-665 1081L-670 1091L-671 1096L-663 1128L-661 1128L-657 1118L-654 1098L-645 1098L-644 1105L-648 1130L-630 1153L-617 1162L-611 1164L-605 1164L-594 1160L-586 1163L-582 1169L-573 1193L-565 1197L-557 1190L-553 1190L-545 1193L-539 1202L-545 1218L-550 1226L-552 1239L-550 1242L-536 1244L-533 1246L-531 1251L-532 1254L-544 1263L-553 1279L-561 1302L-528 1302L-497 1299L-438 1281L-434 1276L-420 1278L-418 1275L-416 1265L-420 1257L-420 1254L-414 1248L-406 1236L-407 1234L-412 1236L-415 1233L-412 1227L-403 1218L-403 1216L-407 1214L-407 1212L-396 1200L-396 1197L-393 1194L-397 1191L-408 1197L-406 1201L-407 1202L-410 1197L-416 1194L-418 1194L-416 1198L-417 1201L-420 1197L-431 1197L-437 1191L-440 1183L-441 1175L-439 1160L-433 1133L-426 1127L-404 1129L-394 1141L-386 1140L-384 1136L-379 1071L-386 1062L-395 1064L-405 1071L-421 1077L-427 1077L-432 1074L-434 1069L-435 1057L-431 1044L-426 1037L-425 1030L-432 1018L-432 1012L-425 1003L-423 987L-424 985L-420 974z" id="象山区"/></g></svg>