<svg xmlns="http://www.w3.org/2000/svg" pointer-events="none" class="leaflet-zoom-animated" width="1451" height="830" viewBox="-985 361 1451 830" style="transform: translate3d(-985px, 361px, 0px);"><g><path class="leaflet-interactive" stroke="black" stroke-opacity="1" stroke-width="2" stroke-linecap="round" stroke-linejoin="round" fill="#fff" fill-opacity="0.2" fill-rule="evenodd" d="M-174 786L-172 784L-164 782L-163 779L-165 775L-171 774L-167 771L-158 770L-158 767L-170 766L-170 762L-160 748L-154 749L-147 754L-145 751L-145 744L-143 741L-134 741L-131 739L-131 734L-138 730L-144 730L-147 728L-147 726L-140 717L-132 713L-122 711L-108 699L-103 684L-101 666L-105 666L-113 671L-114 687L-117 691L-119 691L-123 688L-125 683L-125 668L-133 657L-136 655L-148 661L-167 657L-176 652L-186 643L-194 640L-199 641L-202 645L-202 652L-191 675L-196 683L-211 685L-221 691L-224 717L-229 726L-236 763L-241 773L-250 783L-259 787L-264 794L-267 805L-266 807L-260 807L-257 805L-249 804L-242 809L-243 811L-261 818L-262 829L-264 832L-271 833L-277 831L-285 837L-290 848L-295 867L-300 876L-320 899L-326 909L-329 929L-318 940L-316 952L-310 953L-307 956L-298 974L-305 989L-303 995L-304 1005L-302 1010L-288 1010L-285 990L-279 984L-268 980L-253 976L-240 976L-230 982L-224 982L-216 979L-215 974L-221 960L-221 955L-216 951L-187 939L-179 933L-179 929L-180 924L-189 913L-193 914L-198 911L-205 911L-225 915L-226 901L-221 896L-212 894L-197 894L-188 889L-181 878L-178 862L-176 860L-163 856L-154 850L-145 850L-141 853L-135 850L-126 855L-124 853L-121 853L-118 858L-105 864L-89 825L-102 820L-106 820L-111 822L-113 832L-115 832L-118 830L-117 820L-119 818L-124 818L-128 821L-131 819L-129 814L-130 809L-132 807L-144 806L-145 800L-154 796L-164 795L-170 798L-173 795L-174 788z" id="秀峰区"/></g></svg>