<svg xmlns="http://www.w3.org/2000/svg" pointer-events="none" class="leaflet-zoom-animated" width="1451" height="830" viewBox="-1316 676 1451 830" style="transform: translate3d(-1316px, 676px, 0px);"><g><path class="leaflet-interactive" stroke="black" stroke-opacity="1" stroke-width="2" stroke-linecap="round" stroke-linejoin="round" fill="#fff" fill-opacity="0.2" fill-rule="evenodd" d="M-524 923L-526 921L-532 920L-577 889L-595 870L-602 870L-609 882L-626 883L-631 890L-655 874L-660 881L-661 897L-666 903L-665 911L-661 916L-661 921L-665 926L-668 935L-666 947L-658 949L-647 945L-640 940L-633 939L-630 942L-628 951L-632 991L-634 994L-639 995L-646 986L-659 984L-666 989L-671 1008L-672 1024L-670 1030L-665 1034L-662 1033L-656 1036L-654 1035L-656 1034L-656 1032L-652 1033L-649 1037L-649 1035L-643 1030L-639 1030L-638 1032L-648 1045L-645 1048L-654 1059L-652 1061L-648 1061L-653 1070L-657 1074L-657 1077L-654 1082L-656 1090L-658 1092L-667 1090L-675 1095L-712 1106L-733 1108L-745 1107L-757 1109L-759 1119L-764 1122L-779 1164L-778 1168L-756 1184L-753 1189L-753 1201L-761 1214L-769 1220L-773 1221L-779 1219L-782 1224L-782 1227L-780 1230L-780 1234L-770 1244L-760 1262L-745 1301L-737 1304L-729 1312L-714 1319L-703 1319L-689 1305L-683 1307L-675 1313L-667 1309L-665 1310L-649 1339L-643 1369L-639 1379L-635 1384L-615 1380L-613 1383L-613 1388L-617 1391L-618 1399L-616 1402L-612 1404L-606 1412L-603 1413L-594 1409L-593 1405L-590 1402L-588 1403L-585 1401L-584 1398L-588 1387L-591 1385L-597 1385L-598 1391L-600 1392L-605 1391L-613 1377L-608 1371L-605 1370L-587 1378L-572 1381L-560 1378L-554 1374L-550 1374L-532 1381L-526 1376L-522 1366L-516 1361L-511 1361L-508 1364L-508 1373L-505 1376L-497 1376L-491 1373L-487 1368L-480 1363L-473 1363L-471 1365L-470 1375L-462 1379L-458 1376L-459 1352L-451 1336L-432 1314L-426 1309L-421 1308L-415 1310L-409 1306L-403 1285L-395 1277L-387 1276L-378 1280L-367 1288L-365 1296L-352 1297L-343 1309L-336 1313L-333 1312L-328 1306L-320 1287L-324 1284L-324 1276L-318 1272L-316 1268L-313 1267L-310 1260L-298 1246L-302 1238L-310 1231L-325 1227L-328 1217L-328 1209L-330 1205L-359 1184L-378 1163L-387 1156L-402 1156L-416 1142L-418 1136L-415 1131L-408 1107L-408 1083L-423 1082L-431 1079L-438 1081L-455 1071L-463 1058L-479 1056L-482 1058L-482 1064L-470 1075L-470 1080L-474 1084L-471 1102L-475 1110L-483 1119L-491 1125L-493 1125L-501 1122L-517 1102L-520 1095L-517 1080L-518 1073L-520 1071L-530 1068L-535 1063L-540 1054L-544 1051L-542 1032L-535 1030L-527 1019L-522 1019L-516 1024L-511 1023L-505 1019L-505 1012L-520 974L-520 966L-516 947L-517 943L-521 941L-526 932L-526 928L-524 926z" id="雁山区"/></g></svg>